<svg width="57" height="57" xmlns="http://www.w3.org/2000/svg" xmlns:xlink="http://www.w3.org/1999/xlink" xml:space="preserve" overflow="hidden"><g transform="translate(-69 -518)"><path d="M123.625 537.594 124.812 537.594 124.812 538.781 123.625 538.781Z" fill="#FFFFFF"/><path d="M121.25 537.594 122.438 537.594 122.438 538.781 121.25 538.781Z" fill="#FFFFFF"/><path d="M114.125 537.594 115.312 537.594 115.312 538.781 114.125 538.781Z" fill="#FFFFFF"/><path d="M116.5 537.594 117.688 537.594 117.688 538.781 116.5 538.781Z" fill="#FFFFFF"/><path d="M111.75 537.594 112.938 537.594 112.938 538.781 111.75 538.781Z" fill="#FFFFFF"/><path d="M118.875 537.594 120.062 537.594 120.062 538.781 118.875 538.781Z" fill="#FFFFFF"/><path d="M109.375 537.594 110.562 537.594 110.562 538.781 109.375 538.781Z" fill="#FFFFFF"/><path d="M109.375 532.844 110.562 532.844 110.562 534.031 109.375 534.031Z" fill="#FFFFFF"/><path d="M109.375 535.219 110.562 535.219 110.562 536.406 109.375 536.406Z" fill="#FFFFFF"/><path d="M109.375 525.719 110.562 525.719 110.562 526.906 109.375 526.906Z" fill="#FFFFFF"/><path d="M109.375 530.469 110.562 530.469 110.562 531.656 109.375 531.656Z" fill="#FFFFFF"/><path d="M109.375 528.094 110.562 528.094 110.562 529.281 109.375 529.281Z" fill="#FFFFFF"/><path d="M109.375 523.344 110.562 523.344 110.562 524.531 109.375 524.531Z" fill="#FFFFFF"/><path d="M121.25 523.344 122.438 523.344 122.438 524.531 121.25 524.531Z" fill="#FFFFFF"/><path d="M116.5 523.344 117.688 523.344 117.688 524.531 116.5 524.531Z" fill="#FFFFFF"/><path d="M114.125 523.344 115.312 523.344 115.312 524.531 114.125 524.531Z" fill="#FFFFFF"/><path d="M111.75 523.344 112.938 523.344 112.938 524.531 111.75 524.531Z" fill="#FFFFFF"/><path d="M118.875 523.344 120.062 523.344 120.062 524.531 118.875 524.531Z" fill="#FFFFFF"/><path d="M123.625 523.344 124.812 523.344 124.812 524.531 123.625 524.531Z" fill="#FFFFFF"/><path d="M123.625 528.094 124.812 528.094 124.812 529.281 123.625 529.281Z" fill="#FFFFFF"/><path d="M123.625 532.844 124.812 532.844 124.812 534.031 123.625 534.031Z" fill="#FFFFFF"/><path d="M123.625 530.469 124.812 530.469 124.812 531.656 123.625 531.656Z" fill="#FFFFFF"/><path d="M123.625 535.219 124.812 535.219 124.812 536.406 123.625 536.406Z" fill="#FFFFFF"/><path d="M123.625 525.719 124.812 525.719 124.812 526.906 123.625 526.906Z" fill="#FFFFFF"/><path d="M76.7193 529.865 76.7193 531.062 107.594 531.052 107.594 529.865 76.7193 529.865Z" fill="#FFFFFF"/><path d="M117.096 535.812 118.284 535.812 118.284 531.052 118.284 529.865 117.096 529.865 112.344 529.865 112.344 531.052 117.096 531.052 117.096 535.812Z" fill="#FFFFFF"/><path d="M76.7193 547.094 76.7193 555.997 76.7193 557.185 77.9068 557.185 117.096 557.185 118.284 557.185 118.284 555.997 118.284 540.562 117.096 540.562 117.096 555.997 77.9068 555.997 77.9068 547.094 76.7193 547.094Z" fill="#FFFFFF"/><path d="M74.9375 529.271C74.9375 528.615 75.4691 528.083 76.125 528.083L107.594 528.083 107.594 526.896 76.125 526.896C74.8149 526.899 73.7539 527.961 73.75 529.271L73.75 531.062 74.9375 531.062Z" fill="#FFFFFF"/><path d="M120.062 529.271 120.062 535.812 121.25 535.812 121.25 529.271C121.246 527.961 120.185 526.899 118.875 526.896L112.344 526.896 112.344 528.083 118.875 528.083C119.531 528.083 120.062 528.615 120.062 529.271Z" fill="#FFFFFF"/><path d="M120.062 557.781C120.062 558.437 119.531 558.969 118.875 558.969L76.125 558.969C75.4691 558.969 74.9375 558.437 74.9375 557.781L74.9375 547.094 73.75 547.094 73.75 557.781C73.7542 559.091 74.8151 560.152 76.125 560.156L93.3438 560.156 93.3438 566.094 86.8125 566.094 86.8125 567.281 108.188 567.281 108.188 566.094 101.656 566.094 101.656 560.156 118.875 560.156C120.185 560.152 121.246 559.091 121.25 557.781L121.25 540.562 120.062 540.562ZM100.469 566.094 94.5312 566.094 94.5312 560.156 100.469 560.156Z" fill="#FFFFFF"/><path d="M85.625 532.844 70.1875 532.844 70.1875 545.312 85.625 545.312ZM84.4375 544.125 71.375 544.125 71.375 534.031 84.4375 534.031Z" fill="#FFFFFF"/><path d="M74.3438 536.406 81.4688 536.406 81.4688 537.594 74.3438 537.594Z" fill="#FFFFFF"/><path d="M74.3438 539.969 79.0938 539.969 79.0938 541.156 74.3438 541.156Z" fill="#FFFFFF"/><path d="M97.5 551.844C102.091 551.844 105.812 548.122 105.812 543.531 105.812 538.94 102.091 535.219 97.5 535.219 92.9091 535.219 89.1875 538.94 89.1875 543.531 89.1924 548.12 92.9111 551.839 97.5 551.844ZM93.3515 549.313C93.4382 547.021 95.3658 545.234 97.657 545.321 99.8266 545.403 101.566 547.143 101.649 549.313 99.173 551.104 95.827 551.104 93.3515 549.313ZM95.7188 542.344C95.7188 541.36 96.5162 540.562 97.5 540.562 98.4838 540.562 99.2812 541.36 99.2812 542.344 99.2812 543.328 98.4838 544.125 97.5 544.125 96.5162 544.125 95.7188 543.328 95.7188 542.344ZM97.5 536.406C101.428 536.4 104.618 539.58 104.624 543.508 104.627 545.307 103.948 547.04 102.725 548.358 102.352 546.624 101.146 545.187 99.5039 544.519 100.713 543.411 100.795 541.533 99.6881 540.324 98.5807 539.115 96.7028 539.033 95.4937 540.14 94.2846 541.247 94.2021 543.125 95.3095 544.334 95.3682 544.399 95.4297 544.46 95.4937 544.519 93.8521 545.188 92.6473 546.625 92.275 548.358 89.6028 545.478 89.7709 540.978 92.6505 538.305 93.9688 537.082 95.7015 536.403 97.5 536.406Z" fill="#FFFFFF"/><path d="M113.975 548.642C113.975 548.592 113.925 548.542 113.826 548.493L107.891 546.5 107.841 546.5C107.734 546.507 107.648 546.592 107.641 546.7L107.641 546.749 109.587 552.734C109.635 552.828 109.731 552.886 109.836 552.884 109.886 552.884 109.936 552.834 109.986 552.734L110.731 550.698C110.733 550.695 110.737 550.695 110.739 550.697 110.74 550.697 110.74 550.697 110.741 550.698L113.078 553.031 114.125 551.984 111.788 549.647C111.785 549.645 111.785 549.64 111.787 549.638 111.787 549.637 111.788 549.637 111.788 549.637L113.828 548.892C113.921 548.843 113.978 548.747 113.975 548.642Z" fill="#FFFFFF"/></g></svg>