<svg width="57" height="57" xmlns="http://www.w3.org/2000/svg" xmlns:xlink="http://www.w3.org/1999/xlink" xml:space="preserve" overflow="hidden"><g transform="translate(-264 -518)"><path d="M312.67 566.094 273.5 566.094 273.5 526.906 272.312 526.906 272.312 567.281 312.67 567.281 312.67 566.094Z" fill="#FFFFFF"/><path d="M312.688 526.906 303.188 526.906 303.188 562.531 312.688 562.531ZM311.5 561.344 304.375 561.344 304.375 528.094 311.5 528.094Z" fill="#FFFFFF"/><path d="M290.125 562.531 299.625 562.531 299.625 539.969 290.125 539.969ZM291.312 541.156 298.438 541.156 298.438 561.344 291.312 561.344Z" fill="#FFFFFF"/><path d="M277.062 562.531 286.562 562.531 286.562 550.656 277.062 550.656ZM278.25 551.844 285.375 551.844 285.375 561.344 278.25 561.344Z" fill="#FFFFFF"/><path d="M277.482 546.326 294.867 528.942C294.869 528.939 294.873 528.939 294.875 528.942 294.876 528.943 294.877 528.944 294.877 528.946L294.877 534.625 296.064 534.625 296.064 526.906 288.362 526.906 288.362 528.094 294.021 528.094C294.024 528.094 294.027 528.096 294.027 528.1 294.027 528.101 294.026 528.103 294.025 528.104L276.643 545.486Z" fill="#FFFFFF"/></g></svg>