<svg width="78" height="79" xmlns="http://www.w3.org/2000/svg" xmlns:xlink="http://www.w3.org/1999/xlink" xml:space="preserve" overflow="hidden"><g transform="translate(-514 -98)"><path d="M38.4414 56.873C35.4623 56.6402 33.2279 55.174 32.2969 52.8698L35.2527 51.5198C35.9511 53.079 36.8821 53.8472 38.4414 54.08L38.4414 49.7043C36.7656 49.3553 35.9044 49.0527 35.0666 48.5172 33.74 47.7027 33.0417 46.3759 33.0417 44.7001 33.0417 42.8151 33.9494 41.3018 35.5786 40.4641 36.37 40.0684 37.1613 39.8591 38.4414 39.7659L38.4414 37.7178 40.1871 37.7178 40.1871 39.8124C42.6075 40.1382 44.1204 41.1389 45.2607 43.1872L42.5145 44.6538C41.8397 43.4432 41.2112 42.8846 40.1871 42.6055L40.1871 46.7484C41.8397 47.0974 42.8171 47.4 43.6085 47.8656 45.0279 48.6801 45.7031 49.9135 45.7031 51.7526 45.7031 53.5446 44.9816 54.9177 43.5618 55.8488 42.7005 56.3843 41.7463 56.6865 40.1871 56.8494L40.1871 59.7821 38.4414 59.7821 38.4414 56.873ZM38.4414 42.4657C36.9285 42.6753 36.2535 43.2803 36.2535 44.421 36.2535 45.4683 36.8123 46.0037 38.4414 46.3994L38.4414 42.4657ZM40.1871 54.1032C41.6768 53.8704 42.3983 53.1956 42.3983 52.0784 42.3983 51.0075 41.8397 50.4957 40.1871 50.0532L40.1871 54.1032ZM55.7156 29.4648C52.6553 25.5702 49.5844 23.2958 47.7803 22.1677L55.9504 9.09582 54.3518 8.2966C54.2051 8.22319 50.7175 6.5 47.125 6.5 45.2363 6.5 43.8084 6.97588 42.5486 7.39582 41.3749 7.7872 40.3614 8.125 39 8.125 37.6386 8.125 36.625 7.7872 35.4514 7.39582 34.1917 6.97588 32.7636 6.5 30.875 6.5 27.2826 6.5 23.795 8.22319 23.6482 8.2966L22.0498 9.09582 30.2197 22.1677C28.4157 23.2958 25.3447 25.5702 22.2846 29.4648 18.0492 34.8556 13 44.551 13 60.125 13 66.3971 18.1027 71.5 24.375 71.5L53.625 71.5C59.8971 71.5 65 66.3971 65 60.125 65 44.551 59.9507 34.8556 55.7156 29.4648ZM30.875 9.75C32.2364 9.75 33.25 10.0878 34.4236 10.4792 35.6833 10.8991 37.1114 11.375 39 11.375 40.8887 11.375 42.3166 10.8991 43.5764 10.4792 44.7501 10.0878 45.7637 9.75 47.125 9.75 48.6037 9.75 50.1166 10.1483 51.2224 10.528L44.5993 21.125 33.4007 21.125 26.777 10.527C27.9337 10.134 29.4523 9.75 30.875 9.75ZM53.625 68.25 24.375 68.25C19.895 68.25 16.25 64.6051 16.25 60.125 16.25 45.591 20.8552 36.6065 24.7184 31.6288 28.2701 27.0523 31.8676 24.9209 32.8876 24.375L45.1137 24.375C47.3403 25.5634 61.75 34.2672 61.75 60.125 61.75 64.6051 58.1051 68.25 53.625 68.25Z" stroke="#007BC0" stroke-width="0.40625" fill="#FFFFFF" transform="matrix(1 0 0 1.01282 514 98)"/></g></svg>